<?xml version="1.0" standalone="no"?>
<!DOCTYPE svg PUBLIC "-//W3C//DTD SVG 20010904//EN"
 "http://www.w3.org/TR/2001/REC-SVG-20010904/DTD/svg10.dtd">
<svg version="1.0" xmlns="http://www.w3.org/2000/svg"
 width="400.000000pt" height="110.000000pt" viewBox="0 0 400.000000 110.000000"
 preserveAspectRatio="xMidYMid meet">

<g transform="translate(0.000000,110.000000) scale(0.100000,-0.100000)"
fill="#000000" stroke="none">
<path d="M360 899 c-30 -5 -77 -16 -103 -25 -52 -17 -53 -20 -27 -90 8 -21 15
-25 33 -20 103 30 143 36 227 36 84 0 124 -6 227 -36 18 -5 25 -1 33 20 26 70
25 73 -27 90 -106 34 -246 44 -363 25z"/>
<path d="M1041 864 c-44 -39 -64 -85 -63 -145 1 -45 12 -69 64 -130 21 -25 43
-61 48 -80 11 -38 4 -111 -15 -149 -27 -53 -89 -85 -133 -69 -50 19 -12 127
54 151 36 13 42 26 22 46 -48 48 -147 -51 -148 -146 0 -39 23 -87 45 -96 29
-11 95 -6 123 8 69 36 115 117 115 206 0 61 -17 102 -69 166 -43 52 -53 80
-43 124 7 33 57 90 79 90 5 0 8 -33 7 -72 -2 -59 1 -73 13 -73 10 0 17 16 22
53 5 29 14 65 22 80 18 34 5 63 -24 55 -11 -3 -20 0 -20 6 0 25 -60 11 -99
-25z"/>
<path d="M2521 883 c-11 -10 -35 -43 -52 -73 -17 -30 -28 -44 -25 -30 3 14 9
43 13 64 l6 39 -42 -6 c-50 -6 -125 -50 -155 -90 -23 -32 -27 -94 -5 -108 24
-15 34 -4 34 35 0 31 7 44 37 72 60 55 69 47 47 -38 -18 -71 -39 -243 -39
-317 0 -37 22 -82 34 -70 4 4 18 53 32 110 13 56 27 105 29 107 3 3 11 -1 19
-7 11 -9 22 -9 49 2 68 29 126 136 127 233 0 46 -4 65 -18 77 -24 22 -64 22
-91 0z m56 -83 c-6 -51 -46 -137 -76 -164 -9 -8 -25 -16 -36 -18 -25 -4 -23
12 12 102 30 76 67 130 90 130 13 0 15 -9 10 -50z"/>
<path d="M2672 828 c-17 -21 -19 -98 -2 -98 14 0 42 58 38 82 -4 26 -21 33
-36 16z"/>
<path d="M3662 828 c-17 -21 -19 -98 -2 -98 14 0 42 58 38 82 -4 26 -21 33
-36 16z"/>
<path d="M1271 759 c-12 -19 -21 -40 -21 -46 0 -7 -11 -13 -25 -13 -20 0 -25
-5 -25 -25 0 -13 6 -28 14 -32 11 -7 11 -20 -1 -88 -18 -103 -13 -243 10 -279
23 -34 59 -34 86 0 21 26 29 74 13 74 -5 0 -15 -11 -22 -25 -27 -51 -50 -22
-50 65 0 57 27 226 41 251 5 10 18 19 29 19 32 0 50 11 50 31 0 15 -7 19 -35
19 -33 0 -34 1 -24 27 7 20 6 30 -5 41 -13 13 -17 11 -35 -19z"/>
<path d="M375 764 c-53 -14 -115 -36 -115 -42 0 -12 225 -562 230 -562 5 0
230 550 230 562 0 3 -21 14 -47 23 -47 17 -254 30 -298 19z m82 -86 c27 -25
29 -45 7 -76 -20 -29 -79 -31 -94 -3 -17 32 -12 69 12 85 30 21 47 20 75 -6z
m175 -3 c10 -22 9 -29 -10 -47 -18 -19 -25 -20 -47 -10 -43 20 -31 82 16 82
22 0 32 -7 41 -25z m-111 -231 c17 -21 0 -49 -31 -49 -31 0 -48 28 -31 49 8 9
21 16 31 16 10 0 23 -7 31 -16z"/>
<path d="M1467 753 c-4 -3 -7 -16 -7 -28 0 -14 -10 -26 -32 -36 -81 -36 -124
-262 -63 -329 56 -62 128 26 155 188 8 50 16 72 26 72 8 0 19 12 24 26 14 35
13 35 -15 28 -19 -5 -26 -2 -31 12 -23 72 -37 88 -57 67z m20 -166 c-7 -70
-32 -154 -52 -176 -7 -7 -21 -11 -29 -8 -21 8 -21 86 0 158 18 62 39 89 67 89
18 0 19 -5 14 -63z"/>
<path d="M1682 748 c-7 -7 -12 -20 -12 -29 0 -9 -13 -22 -30 -29 -47 -19 -83
-103 -87 -204 -3 -54 0 -89 9 -105 52 -97 143 -12 169 160 10 64 16 77 37 87
22 10 24 9 18 -11 -10 -37 -19 -212 -12 -241 7 -27 36 -37 36 -11 0 23 68 217
80 229 7 7 9 -14 4 -76 -13 -162 14 -182 65 -48 18 50 37 93 42 96 5 3 9 -40
9 -96 0 -114 16 -170 49 -170 22 0 46 34 35 51 -3 6 -13 8 -22 4 -13 -5 -14 8
-7 112 13 205 13 208 -11 211 -20 3 -48 -22 -81 -74 -10 -16 -11 -9 -6 38 5
49 3 59 -12 64 -25 10 -45 -5 -83 -61 l-33 -49 7 53 c6 48 5 53 -12 49 -10 -2
-24 -14 -31 -28 -10 -19 -13 -21 -13 -7 0 13 -6 16 -23 12 -19 -5 -24 0 -37
36 -16 46 -29 56 -48 37z m18 -145 c0 -57 -22 -144 -44 -179 -40 -59 -65 -2
-46 101 14 75 42 125 70 125 17 0 20 -7 20 -47z"/>
<path d="M3542 714 c-13 -9 -37 -40 -54 -70 -17 -30 -32 -53 -35 -51 -2 2 1
24 6 47 17 75 -9 94 -41 29 -23 -46 -43 -244 -29 -281 11 -29 29 -37 35 -15 9
38 48 149 67 191 l22 50 11 -34 c18 -53 31 -45 45 27 23 121 18 139 -27 107z"/>
<path d="M2790 688 c-36 -25 -91 -121 -87 -153 5 -41 32 -27 50 26 18 51 56
99 77 99 20 0 9 -68 -21 -130 -23 -45 -40 -66 -60 -74 -32 -12 -36 -23 -15
-51 14 -19 15 -19 52 -2 22 11 41 14 46 9 25 -25 -51 -185 -105 -224 -70 -50
-50 50 24 124 29 29 48 56 45 64 -9 24 -28 16 -71 -30 -61 -63 -96 -181 -63
-214 17 -17 65 -15 96 4 90 54 154 244 106 312 -15 21 -14 26 2 60 10 20 20
65 22 98 4 53 1 65 -17 83 -27 27 -40 26 -81 -1z"/>
<path d="M3023 700 c-50 -20 -121 -156 -95 -182 15 -15 26 -4 41 44 16 50 68
105 84 89 27 -27 -40 -173 -91 -196 -23 -10 -26 -22 -16 -49 8 -20 28 -20 59
0 14 9 31 14 39 11 34 -13 -28 -162 -89 -215 -42 -37 -55 -40 -55 -12 0 33 35
93 81 137 23 23 38 46 35 52 -11 17 -23 13 -62 -21 -44 -39 -84 -119 -84 -170
0 -58 8 -68 51 -68 30 0 47 8 78 35 77 70 128 248 84 292 -20 20 -20 21 -1 56
35 69 36 158 2 191 -17 18 -29 19 -61 6z"/>
<path d="M3222 694 c-12 -8 -32 -34 -44 -57 -89 -176 -43 -380 55 -241 l32 46
7 -62 c7 -66 29 -110 53 -110 19 0 48 57 40 78 -6 16 -7 16 -19 0 -7 -10 -16
-18 -20 -18 -11 0 -6 104 10 195 30 169 30 159 2 152 -17 -5 -27 -1 -36 13
-15 24 -49 26 -80 4z m63 -51 c11 -14 10 -26 -6 -65 -31 -79 -79 -168 -90
-168 -20 0 16 181 45 226 19 28 34 30 51 7z"/>
<path d="M3782 694 c-12 -8 -32 -34 -44 -57 -89 -176 -43 -380 55 -241 l32 46
7 -62 c7 -66 29 -110 53 -110 19 0 48 57 40 78 -6 16 -7 16 -19 0 -7 -10 -16
-18 -20 -18 -11 0 -6 104 10 195 30 169 30 159 2 152 -17 -5 -27 -1 -36 13
-15 24 -49 26 -80 4z m63 -51 c11 -14 10 -26 -6 -65 -31 -79 -79 -168 -90
-168 -20 0 16 181 45 226 19 28 34 30 51 7z"/>
<path d="M2636 668 c-37 -58 -50 -313 -16 -313 11 0 17 18 22 75 4 41 14 108
22 148 9 40 16 82 16 93 0 26 -26 24 -44 -3z"/>
<path d="M3626 668 c-37 -58 -50 -313 -16 -313 11 0 17 18 22 75 4 41 14 108
22 148 9 40 16 82 16 93 0 26 -26 24 -44 -3z"/>
</g>
</svg>
